<svg width="751" height="751" viewBox="0 0 751 751" fill="none" xmlns="http://www.w3.org/2000/svg">
<rect width="751" height="751" rx="150" fill="url(#paint0_linear_101_16)"/>
<path d="M449.875 102.792H301.125V152.375H449.875V102.792ZM350.708 425.083H400.292V276.333H350.708V425.083ZM549.785 261.21L584.99 226.006C574.329 213.363 562.677 201.463 550.033 191.05L514.829 226.254C476.402 195.513 428.058 177.167 375.5 177.167C252.285 177.167 152.375 277.077 152.375 400.292C152.375 523.506 252.037 623.417 375.5 623.417C498.962 623.417 598.625 523.506 598.625 400.292C598.625 347.733 580.279 299.39 549.785 261.21ZM375.5 573.833C279.556 573.833 201.958 496.235 201.958 400.292C201.958 304.348 279.556 226.75 375.5 226.75C471.444 226.75 549.042 304.348 549.042 400.292C549.042 496.235 471.444 573.833 375.5 573.833Z" fill="white"/>
<defs>
<linearGradient id="paint0_linear_101_16" x1="7.68155e-06" y1="751" x2="751" y2="-3.70815e-05" gradientUnits="userSpaceOnUse">
<stop offset="0.177083" stop-color="#42D392"/>
<stop offset="0.869792" stop-color="#647EFF"/>
</linearGradient>
</defs>
</svg>
